# xmcd CD database file
#
# Track frame offsets:
#	182
#	21695
#	47937
#	58845
#	86060
#	117982
#	137880
#	169617
#	186427
#	206825
#	233095
#	253930
#	286282
#	302175
#	317747
#
# Disc length: 4529 seconds
#
# Revision: 0
# Processed by: cddbd v1.5.1PL0 Copyright (c) Steve Scherf et al.
# Submitted via: CDex 1.51
#
DISCID=ed11af0f
DTITLE=John Coltrane - Giant Steps
DYEAR=1975
DGENRE=Jazz
TTITLE0=Giant Steps
TTITLE1=Cousin Mary
TTITLE2=Countdown
TTITLE3=Sprial
TTITLE4=Syeeda's Song Flute
TTITLE5=Naima
TTITLE6=Mr. P.C.
TTITLE7=Giant Steps (Alt Version 1)
TTITLE8=Naima (Alt Version 1)
TTITLE9=Cousin Mary (Alternate Take)
TTITLE10=Countdown (Alternate Take)
TTITLE11=Syeeda's Song Flute (Alternate Take)
TTITLE12=Giant Steps (Alt Version 2)
TTITLE13=Naima (Alt Version 2)
TTITLE14=Giant Steps (Alternate Take)
EXTD=YEAR: 1975
EXTT0=
EXTT1=
EXTT2=
EXTT3=
EXTT4=
EXTT5=
EXTT6=
EXTT7=
EXTT8=
EXTT9=
EXTT10=
EXTT11=
EXTT12=
EXTT13=
EXTT14=
PLAYORDER=
